<svg width="1024" height="1024" viewBox="0 0 1024 1024" xmlns="http://www.w3.org/2000/svg">
  <defs>
    <linearGradient id="bg" x1="0" y1="0" x2="0" y2="1">
      <stop offset="0%" stop-color="#151E29"/>
      <stop offset="100%" stop-color="#0F141B"/>
    </linearGradient>
    <radialGradient id="glow" cx="50%" cy="48%" r="42%">
      <stop offset="0%" stop-color="#22C55E" stop-opacity="0.38"/>
      <stop offset="100%" stop-color="#22C55E" stop-opacity="0"/>
    </radialGradient>
    <filter id="softGlow" x="-25%" y="-25%" width="150%" height="150%">
      <feGaussianBlur stdDeviation="22"/>
    </filter>
  </defs>

  <rect x="64" y="64" width="896" height="896" rx="220" fill="url(#bg)"/>
  <circle cx="512" cy="512" r="238" fill="url(#glow)" filter="url(#softGlow)"/>

  <path d="M512 248 C448 276 381 294 318 304 V470 C318 644 420 744 512 788 C604 744 706 644 706 470 V304 C643 294 576 276 512 248Z"
    fill="none" stroke="#2DD4BF" stroke-width="34" stroke-linecap="round" stroke-linejoin="round"/>
  <path d="M428 612 C468 586 486 554 500 512 C512 474 526 430 576 390"
    fill="none" stroke="#60A5FA" stroke-width="24" stroke-linecap="round" stroke-linejoin="round"/>
  <line x1="512" y1="366" x2="512" y2="690" stroke="#E5E7EB" stroke-width="26" stroke-linecap="round"/>
  <circle cx="512" cy="512" r="34" fill="#22C55E" stroke="#E5E7EB" stroke-width="10"/>
</svg>
